<svg width="35" height="35" viewBox="0 0 35 35" fill="none" xmlns="http://www.w3.org/2000/svg">
<rect width="35" height="35" fill="white"/>
<path d="M16.83 28.825C16.41 29.245 16.41 29.925 16.83 30.335C17.25 30.755 17.92 30.755 18.34 30.335L31.06 17.605C31.22 17.445 31.22 17.185 31.06 17.025C30.9 16.865 30.64 16.865 30.48 17.025L25.04 22.465C24.78 22.725 24.36 22.725 24.11 22.465C23.85 22.205 23.85 21.785 24.11 21.535L16.82 28.825H16.83Z" fill="black"/>
<path d="M22.6 20.015C22.34 20.275 21.93 20.275 21.67 20.015C21.42 19.765 21.41 19.355 21.65 19.095L14.41 26.335C14.41 26.335 14.39 26.355 14.38 26.365C13.96 26.785 13.96 27.465 14.38 27.875C14.8 28.295 15.48 28.295 15.89 27.875L28.61 15.155C28.77 14.995 28.77 14.735 28.61 14.575C28.45 14.415 28.19 14.415 28.03 14.575L22.59 20.015H22.6Z" fill="black"/>
<path d="M20.16 17.565C19.9 17.825 19.48 17.825 19.23 17.565C18.98 17.315 18.97 16.925 19.2 16.665L11.99 23.875C11.99 23.875 11.96 23.905 11.94 23.925C11.52 24.345 11.52 25.025 11.94 25.435C12.36 25.845 13.04 25.855 13.45 25.435L26.17 12.705C26.33 12.545 26.33 12.285 26.17 12.125C26.01 11.965 25.75 11.965 25.59 12.125L20.15 17.565H20.16Z" fill="black"/>
<path d="M10.14 12.185C10.4 11.925 10.81 11.925 11.07 12.185C11.31 12.425 11.33 12.805 11.12 13.065L18.3 5.885C18.3 5.885 18.34 5.845 18.36 5.825C18.78 5.405 18.78 4.725 18.36 4.315C17.94 3.895 17.26 3.895 16.85 4.315L4.12 17.045C3.96 17.205 3.96 17.465 4.12 17.625C4.28 17.785 4.54 17.785 4.7 17.625L10.14 12.185Z" fill="black"/>
<path d="M12.59 14.635C12.85 14.375 13.27 14.375 13.52 14.635C13.76 14.875 13.78 15.255 13.57 15.515L20.73 8.355C20.73 8.355 20.78 8.315 20.8 8.285C21.22 7.865 21.22 7.185 20.8 6.775C20.38 6.355 19.7 6.355 19.29 6.775L6.57 19.495C6.41 19.655 6.41 19.915 6.57 20.075C6.73 20.235 6.99 20.235 7.15 20.075L12.59 14.635Z" fill="black"/>
<path d="M15.04 17.085C15.3 16.825 15.72 16.825 15.97 17.085C16.21 17.325 16.23 17.695 16.03 17.955L23.18 10.805C23.18 10.805 23.24 10.755 23.26 10.725C23.68 10.305 23.68 9.625 23.26 9.215C22.84 8.795 22.16 8.795 21.75 9.215L9.02 21.945C8.86 22.105 8.86 22.365 9.02 22.525C9.18 22.685 9.44 22.685 9.6 22.525L15.04 17.085Z" fill="black"/>
</svg>
